# Wavefront OBJ file made by Mineways version 8.07, http://mineways.com
# Minecraft world: New World (1)
# Terrain file name: D:\downloads\mineways\terrainExt.png
# Color scheme: Standard
# Wed May 19 11:05:57 2021

# Selection location min to max: 152, 4, -56 to 152, 255, -36
#   Non-empty selection location min to max: 152, 6, -56 to 152, 21, -36

# Set render type: Wavefront OBJ absolute indices
# Units for the model vertex data itself: meters

# 452 vertices, 450 faces (900 triangles), 155 blocks, 0 billboards/bits
# block dimensions: X=1 by Y=16 (height) by Z=21 blocks
# Elevation shading: no
# Lighting: no
# Transparent water: no
# Map grid: no
# File type: Export full color texture patterns
# Texture output RGB: YES
# Texture output A: YES
# Texture output RGBA: YES
# Make groups objects: no
# Export separate objects: YES
# Individual blocks: no
#   Material per family: YES
#   Split by block type: no
# G3D full material: YES
# Make Z the up direction instead of Y: no
# Create composite overlay faces: no
# Center model: YES
# Export lesser blocks: YES
# Fatten lesser blocks: no
# Create block faces at the borders: YES
# Make tree leaves solid: no
# Use biomes: no
# Rotate model 0.000000 degrees
# Scale model by making each block 1000 mm high
# Data operation options:
#   Fill air bubbles: no; Seal off entrances: no; Fill in isolated tunnels in base of model: no
#   Connect parts sharing an edge: no; Connect corner tips: no; Weld all shared edges: no
#   Delete floating objects: trees and parts smaller than 16 blocks: no
#   Hollow out bottom of model, making the walls 1000 mm thick: no; Superhollow: no
# Melt snow blocks: no
#   Debug: show separate parts as colors: no
#   Debug: show weld blocks in bright colors: no

# Full world path: C:\Users\giwaf\AppData\Roaming\.minecraft\saves\New World (1)
# Full terrainExt.png path: D:\downloads\mineways\terrainExt.png
# Full current path: D:\downloads\mineways

mtllib crossed_swords_statue_for_unity.mtl

o New_World_(1)__152_4_-56_to_152_255_-36
vn -1 0 0
vn 0 -1 0
vn 0 0 -1
vn 1 0 0
vn 0 1 0
vn 0 0 1
vn -0.707107 0 -0.707107
vn -0.707107 0 0.707107
vn 0.707107 0 -0.707107
vn 0.707107 0 0.707107
vn -0.707107 -0.707107 0
vn 0 -0.707107 -0.707107
vn 0.707107 -0.707107 0
vn 0 -0.707107 0.707107
vn -0.707107 0.707107 0
vn 0 0.707107 -0.707107
vn 0.707107 0.707107 0
vn 0 0.707107 0.707107
vn -0.92388 0 -0.382683
vn -0.92388 0 0.382683
vn 0.92388 0 -0.382683
vn 0.92388 0 0.382683
vn -0.382683 0 -0.92388
vn -0.382683 0 0.92388
vn 0.382683 0 -0.92388
vn 0.382683 0 0.92388
vn -0.397273 0.9177 0
vn 0.397273 -0.9177 0
vn 0.397273 0.9177 0
vn -0.397273 -0.9177 0
vn 0 0.9177 -0.397273
vn 0 -0.9177 0.397273
vn 0 0.9177 0.397273
vn 0 -0.9177 -0.397273
vn -0.440932 0.897541 0
vn 0.440932 -0.897541 0
vn 0.440932 0.897541 0
vn -0.440932 -0.897541 0
vn 0 0.897541 -0.440932
vn 0 -0.897541 0.440932
vn 0 0.897541 0.440932
vn 0 -0.897541 -0.440932
# diamond_block
vt 0.845703125 0.966796875
vt 0.876953125 0.966796875
vt 0.876953125 0.998046875
vt 0.845703125 0.998046875
# sea_lantern
vt 0.072265625 0.509765625
vt 0.103515625 0.509765625
vt 0.103515625 0.541015625
vt 0.072265625 0.541015625
# warped_stem
vt 0.177734375 0.087890625
vt 0.208984375 0.087890625
vt 0.208984375 0.119140625
vt 0.177734375 0.119140625
# spruce_log
vt 0.142578125 0.826171875
vt 0.173828125 0.826171875
vt 0.173828125 0.857421875
vt 0.142578125 0.857421875
# cyan_wool
vt 0.458984375 0.720703125
vt 0.490234375 0.720703125
vt 0.490234375 0.751953125
vt 0.458984375 0.751953125
# oak_log
vt 0.705078125 0.966796875
vt 0.736328125 0.966796875
vt 0.736328125 0.998046875
vt 0.705078125 0.998046875
v 0 15 -10
v 0 15 -9
v 0 16 -9
v 0 16 -10
v 1 15 -9
v 1 15 -10
v 1 16 -10
v 1 16 -9
v 0 17 -9
v 0 17 -10
v 1 17 -10
v 1 17 -9
v 0 18 -9
v 0 18 -10
v 1 18 -10
v 1 18 -9
v 0 15 -8
v 0 16 -8
v 1 15 -8
v 1 16 -8
v 0 17 -8
v 1 17 -8
v 0 18 -8
v 1 18 -8
v 0 8 -8
v 0 8 -7
v 0 9 -7
v 0 9 -8
v 1 8 -7
v 1 8 -8
v 1 9 -8
v 1 9 -7
v 0 10 -7
v 0 10 -8
v 1 10 -8
v 1 10 -7
v 0 14 -8
v 0 14 -7
v 0 15 -7
v 1 14 -7
v 1 14 -8
v 1 15 -7
v 0 16 -7
v 1 16 -7
v 0 17 -7
v 1 17 -7
v 0 18 -7
v 1 18 -7
v 0 8 -6
v 0 9 -6
v 1 8 -6
v 1 9 -6
v 0 10 -6
v 1 10 -6
v 0 11 -6
v 0 11 -7
v 1 11 -7
v 1 11 -6
v 0 12 -6
v 0 12 -7
v 1 12 -7
v 1 12 -6
v 0 13 -7
v 0 13 -6
v 0 14 -6
v 1 13 -6
v 1 13 -7
v 1 14 -6
v 0 15 -6
v 1 15 -6
v 0 16 -6
v 1 16 -6
v 0 9 -5
v 0 10 -5
v 1 9 -5
v 1 10 -5
v 0 11 -5
v 1 11 -5
v 0 12 -5
v 1 12 -5
v 0 13 -5
v 1 13 -5
v 0 14 -5
v 1 14 -5
v 0 15 -5
v 1 15 -5
v 0 2 -5
v 0 2 -4
v 0 3 -4
v 0 3 -5
v 1 2 -4
v 1 2 -5
v 1 3 -5
v 1 3 -4
v 0 4 -4
v 0 4 -5
v 1 4 -5
v 1 4 -4
v 0 5 -4
v 0 5 -5
v 1 5 -5
v 1 5 -4
v 0 10 -4
v 0 11 -4
v 1 10 -4
v 1 11 -4
v 0 12 -4
v 1 12 -4
v 0 13 -4
v 1 13 -4
v 0 14 -4
v 1 14 -4
v 0 2 -3
v 0 3 -3
v 1 2 -3
v 1 3 -3
v 0 4 -3
v 1 4 -3
v 0 5 -3
v 1 5 -3
v 0 6 -3
v 0 6 -4
v 1 6 -4
v 1 6 -3
v 0 9 -4
v 0 9 -3
v 0 10 -3
v 1 9 -3
v 1 9 -4
v 1 10 -3
v 0 11 -3
v 1 11 -3
v 0 12 -3
v 1 12 -3
v 0 13 -3
v 1 13 -3
v 0 14 -3
v 1 14 -3
v 0 15 -3
v 0 15 -4
v 1 15 -4
v 1 15 -3
v 0 2 -2
v 0 3 -2
v 1 2 -2
v 1 3 -2
v 0 4 -2
v 1 4 -2
v 0 5 -2
v 1 5 -2
v 0 6 -2
v 1 6 -2
v 0 7 -2
v 0 7 -3
v 1 7 -3
v 1 7 -2
v 0 8 -3
v 0 8 -2
v 0 9 -2
v 1 8 -2
v 1 8 -3
v 1 9 -2
v 0 10 -2
v 1 10 -2
v 0 11 -2
v 1 11 -2
v 0 12 -2
v 1 12 -2
v 0 13 -2
v 1 13 -2
v 0 14 -2
v 1 14 -2
v 0 15 -2
v 1 15 -2
v 0 3 -1
v 0 4 -1
v 1 3 -1
v 1 4 -1
v 0 5 -1
v 1 5 -1
v 0 6 -1
v 1 6 -1
v 0 7 -1
v 1 7 -1
v 0 8 -1
v 1 8 -1
v 0 9 -1
v 1 9 -1
v 0 10 -1
v 1 10 -1
v 0 11 -1
v 1 11 -1
v 0 12 -1
v 1 12 -1
v 0 13 -1
v 0 14 -1
v 1 13 -1
v 1 14 -1
v 0 15 -1
v 1 15 -1
v 0 16 -1
v 0 16 -2
v 1 16 -2
v 1 16 -1
v 0 4 0
v 0 5 0
v 1 4 0
v 1 5 0
v 0 6 0
v 1 6 0
v 0 7 0
v 1 7 0
v 0 8 0
v 1 8 0
v 0 9 0
v 1 9 0
v 0 10 0
v 1 10 0
v 0 11 0
v 1 11 0
v 0 14 0
v 0 15 0
v 1 14 0
v 1 15 0
v 0 16 0
v 1 16 0
v 0 5 1
v 0 6 1
v 1 5 1
v 1 6 1
v 0 7 1
v 1 7 1
v 0 8 1
v 1 8 1
v 0 9 1
v 1 9 1
v 0 10 1
v 1 10 1
v 0 4 1
v 0 4 2
v 0 5 2
v 1 4 2
v 1 4 1
v 1 5 2
v 0 6 2
v 1 6 2
v 0 7 2
v 1 7 2
v 0 8 2
v 1 8 2
v 0 9 2
v 1 9 2
v 0 10 2
v 1 10 2
v 0 11 2
v 0 11 1
v 1 11 1
v 1 11 2
v 0 14 1
v 0 14 2
v 0 15 2
v 0 15 1
v 1 14 2
v 1 14 1
v 1 15 1
v 1 15 2
v 0 16 2
v 0 16 1
v 1 16 1
v 1 16 2
v 0 3 2
v 0 3 3
v 0 4 3
v 1 3 3
v 1 3 2
v 1 4 3
v 0 5 3
v 1 5 3
v 0 6 3
v 1 6 3
v 0 7 3
v 1 7 3
v 0 8 3
v 1 8 3
v 0 9 3
v 1 9 3
v 0 10 3
v 1 10 3
v 0 11 3
v 1 11 3
v 0 12 3
v 0 12 2
v 1 12 2
v 1 12 3
v 0 13 2
v 0 13 3
v 0 14 3
v 1 13 3
v 1 13 2
v 1 14 3
v 0 15 3
v 1 15 3
v 0 16 3
v 1 16 3
v 0 2 3
v 0 2 4
v 0 3 4
v 1 2 4
v 1 2 3
v 1 3 4
v 0 4 4
v 1 4 4
v 0 5 4
v 1 5 4
v 0 6 4
v 1 6 4
v 0 7 4
v 1 7 4
v 0 8 4
v 0 9 4
v 1 8 4
v 1 9 4
v 0 10 4
v 1 10 4
v 0 11 4
v 1 11 4
v 0 12 4
v 1 12 4
v 0 13 4
v 1 13 4
v 0 14 4
v 1 14 4
v 0 15 4
v 1 15 4
v 0 2 5
v 0 3 5
v 1 2 5
v 1 3 5
v 0 4 5
v 1 4 5
v 0 5 5
v 1 5 5
v 0 6 5
v 1 6 5
v 0 9 5
v 0 10 5
v 1 9 5
v 1 10 5
v 0 11 5
v 1 11 5
v 0 12 5
v 1 12 5
v 0 13 5
v 1 13 5
v 0 14 5
v 1 14 5
v 0 15 5
v 1 15 5
v 0 2 6
v 0 3 6
v 1 2 6
v 1 3 6
v 0 4 6
v 1 4 6
v 0 5 6
v 1 5 6
v 0 10 6
v 0 11 6
v 1 10 6
v 1 11 6
v 0 12 6
v 1 12 6
v 0 13 6
v 1 13 6
v 0 14 6
v 1 14 6
v 0 9 6
v 0 9 7
v 0 10 7
v 1 9 7
v 1 9 6
v 1 10 7
v 0 11 7
v 1 11 7
v 0 12 7
v 1 12 7
v 0 13 7
v 1 13 7
v 0 14 7
v 1 14 7
v 0 15 7
v 0 15 6
v 1 15 6
v 1 15 7
v 0 8 7
v 0 8 8
v 0 9 8
v 1 8 8
v 1 8 7
v 1 9 8
v 0 10 8
v 1 10 8
v 0 11 8
v 1 11 8
v 0 12 8
v 1 12 8
v 0 13 8
v 0 14 8
v 1 13 8
v 1 14 8
v 0 15 8
v 1 15 8
v 0 16 8
v 0 16 7
v 1 16 7
v 1 16 8
v 0 8 9
v 0 9 9
v 1 8 9
v 1 9 9
v 0 10 9
v 1 10 9
v 0 14 9
v 0 15 9
v 1 14 9
v 1 15 9
v 0 16 9
v 1 16 9
v 0 17 9
v 0 17 8
v 1 17 8
v 1 17 9
v 0 18 9
v 0 18 8
v 1 18 8
v 1 18 9
v 0 15 10
v 0 16 10
v 1 15 10
v 1 16 10
v 0 17 10
v 1 17 10
v 0 18 10
v 1 18 10
v 0 15 11
v 0 16 11
v 1 15 11
v 1 16 11
v 0 17 11
v 1 17 11
v 0 18 11
v 1 18 11

g Oak_Log
usemtl Oak_Log
f 65/22/1 69/23/1 39/24/1 38/21/1
f 68/21/4 40/22/4 42/23/4 70/24/4
f 81/22/1 83/23/1 65/24/1 64/21/1
f 82/21/4 66/22/4 68/23/4 84/24/4
f 387/22/1 389/23/1 375/24/1 373/21/1
f 388/21/4 374/22/4 376/23/4 390/24/4
f 408/22/1 411/23/1 391/24/1 389/21/1
f 410/21/4 390/22/4 394/23/4 412/24/4
f 38/15/1 39/16/1 17/13/1 37/14/1
f 38/13/2 37/16/2 41/15/2 40/14/2
f 37/14/3 17/15/3 19/16/3 41/13/3
f 40/13/4 41/16/4 19/15/4 42/14/4
f 64/15/1 65/16/1 38/13/1 63/14/1
f 64/13/2 63/16/2 67/15/2 66/14/2
f 63/14/3 38/15/3 40/16/3 67/13/3
f 66/13/4 67/16/4 40/15/4 68/14/4
f 69/14/1 71/15/1 43/16/1 39/13/1
f 70/13/4 42/14/4 44/15/4 72/16/4
f 71/13/5 72/14/5 44/15/5 43/16/5
f 69/13/6 70/14/6 72/15/6 71/16/6
f 83/14/1 85/15/1 69/16/1 65/13/1
f 84/13/4 68/14/4 70/15/4 86/16/4
f 85/13/5 86/14/5 70/15/5 69/16/5
f 83/13/6 84/14/6 86/15/6 85/16/6
f 389/14/1 391/15/1 392/16/1 375/13/1
f 375/14/3 392/15/3 393/16/3 376/13/3
f 390/13/4 376/14/4 393/15/4 394/16/4
f 391/13/5 394/14/5 393/15/5 392/16/5
f 407/15/1 408/16/1 389/13/1 387/14/1
f 407/13/2 387/16/2 388/15/2 409/14/2
f 409/13/4 388/16/4 390/15/4 410/14/4
f 407/13/6 409/14/6 410/15/6 408/16/6
f 411/14/1 413/15/1 414/16/1 391/13/1
f 391/14/3 414/15/3 415/16/3 394/13/3
f 412/13/4 394/14/4 415/15/4 416/16/4
f 413/13/5 416/14/5 415/15/5 414/16/5
f 423/15/1 424/16/1 411/13/1 408/14/1
f 423/13/2 408/16/2 410/15/2 425/14/2
f 425/13/4 410/16/4 412/15/4 426/14/4
f 423/13/6 425/14/6 426/15/6 424/16/6

g Wool
usemtl Wool
f 50/18/1 53/19/1 33/20/1 27/17/1
f 52/17/4 32/18/4 36/19/4 54/20/4
f 74/18/1 77/19/1 55/20/1 53/17/1
f 76/17/4 54/18/4 58/19/4 78/20/4
f 77/18/1 79/19/1 59/20/1 55/17/1
f 78/17/4 58/18/4 62/19/4 80/20/4
f 107/18/1 109/19/1 81/20/1 79/17/1
f 108/17/4 80/18/4 82/19/4 110/20/4
f 135/18/1 137/19/1 111/20/1 109/17/1
f 136/17/4 110/18/4 112/19/4 138/20/4
f 169/18/1 171/19/1 137/20/1 135/17/1
f 170/17/4 136/18/4 138/19/4 172/20/4
f 196/18/1 199/19/1 173/20/1 171/17/1
f 198/17/4 172/18/4 174/19/4 200/20/4
f 297/18/1 301/19/1 261/20/1 260/17/1
f 300/17/4 263/18/4 266/19/4 302/20/4
f 329/18/1 331/19/1 297/20/1 296/17/1
f 330/17/4 298/18/4 300/19/4 332/20/4
f 353/18/1 355/19/1 331/20/1 329/17/1
f 354/17/4 330/18/4 332/19/4 356/20/4
f 371/18/1 373/19/1 353/20/1 351/17/1
f 372/17/4 352/18/4 354/19/4 374/20/4
f 379/18/1 383/19/1 368/20/1 367/17/1
f 382/17/4 369/18/4 370/19/4 384/20/4
f 383/18/1 385/19/1 371/20/1 368/17/1
f 384/17/4 370/18/4 372/19/4 386/20/4
f 397/18/1 401/19/1 379/20/1 378/17/1
f 400/17/4 380/18/4 382/19/4 402/20/4

g Block_of_Diamond
usemtl Block_of_Diamond
f 2/2/1 3/3/1 4/4/1 1/1/1
f 2/1/2 1/4/2 6/3/2 5/2/2
f 1/2/3 4/3/3 7/4/3 6/1/3
f 5/1/4 6/2/4 7/3/4 8/4/4
f 3/2/1 9/3/1 10/4/1 4/1/1
f 4/2/3 10/3/3 11/4/3 7/1/3
f 8/1/4 7/2/4 11/3/4 12/4/4
f 9/2/1 13/3/1 14/4/1 10/1/1
f 10/2/3 14/3/3 15/4/3 11/1/3
f 12/1/4 11/2/4 15/3/4 16/4/4
f 13/1/5 16/2/5 15/3/5 14/4/5
f 17/2/1 18/3/1 3/4/1 2/1/1
f 17/1/2 2/4/2 5/3/2 19/2/2
f 19/1/4 5/2/4 8/3/4 20/4/4
f 21/2/1 23/3/1 13/4/1 9/1/1
f 22/1/4 12/2/4 16/3/4 24/4/4
f 23/1/5 24/2/5 16/3/5 13/4/5
f 39/2/1 43/3/1 18/4/1 17/1/1
f 42/1/4 19/2/4 20/3/4 44/4/4
f 43/2/1 45/3/1 21/4/1 18/1/1
f 44/1/4 20/2/4 22/3/4 46/4/4
f 43/1/6 44/2/6 46/3/6 45/4/6
f 45/2/1 47/3/1 23/4/1 21/1/1
f 46/1/4 22/2/4 24/3/4 48/4/4
f 47/1/5 48/2/5 24/3/5 23/4/5
f 45/1/6 46/2/6 48/3/6 47/4/6
f 114/2/1 117/3/1 95/4/1 89/1/1
f 116/1/4 94/2/4 98/3/4 118/4/4
f 131/2/1 133/3/1 107/4/1 104/1/1
f 132/1/4 106/2/4 108/3/4 134/4/4
f 147/2/1 149/3/1 119/4/1 117/1/1
f 148/1/4 118/2/4 120/3/4 150/4/4
f 163/2/1 165/3/1 131/4/1 127/1/1
f 164/1/4 130/2/4 132/3/4 166/4/4
f 179/2/1 181/3/1 151/4/1 149/1/1
f 180/1/4 150/2/4 152/3/4 182/4/4
f 187/2/1 189/3/1 163/4/1 159/1/1
f 188/1/4 162/2/4 164/3/4 190/4/4
f 209/2/1 211/3/1 183/4/1 181/1/1
f 210/1/4 182/2/4 184/3/4 212/4/4
f 213/2/1 215/3/1 187/4/1 185/1/1
f 214/1/4 186/2/4 188/3/4 216/4/4
f 231/2/1 233/3/1 213/4/1 211/1/1
f 232/1/4 212/2/4 214/3/4 234/4/4
f 245/2/1 247/3/1 231/4/1 228/1/1
f 246/1/4 230/2/4 232/3/4 248/4/4
f 249/2/1 251/3/1 235/4/1 233/1/1
f 250/1/4 234/2/4 236/3/4 252/4/4
f 277/2/1 279/3/1 245/4/1 241/1/1
f 278/1/4 244/2/4 246/3/4 280/4/4
f 285/2/1 287/3/1 253/4/1 251/1/1
f 286/1/4 252/2/4 254/3/4 288/4/4
f 311/2/1 313/3/1 277/4/1 273/1/1
f 312/1/4 276/2/4 278/3/4 314/4/4
f 323/2/1 325/3/1 289/4/1 287/1/1
f 324/1/4 288/2/4 290/3/4 326/4/4
f 336/2/1 339/3/1 311/4/1 307/1/1
f 338/1/4 310/2/4 312/3/4 340/4/4
f 349/2/1 351/3/1 327/4/1 325/1/1
f 350/1/4 326/2/4 328/3/4 352/4/4
f 424/2/1 427/3/1 413/4/1 411/1/1
f 426/1/4 412/2/4 416/3/4 428/4/4
f 427/2/1 429/3/1 430/4/1 413/1/1
f 413/2/3 430/3/3 431/4/3 416/1/3
f 428/1/4 416/2/4 431/3/4 432/4/4
f 429/2/1 433/3/1 434/4/1 430/1/1
f 430/2/3 434/3/3 435/4/3 431/1/3
f 432/1/4 431/2/4 435/3/4 436/4/4
f 433/1/5 436/2/5 435/3/5 434/4/5
f 437/2/1 438/3/1 427/4/1 424/1/1
f 437/1/2 424/4/2 426/3/2 439/2/2
f 439/1/4 426/2/4 428/3/4 440/4/4
f 441/2/1 443/3/1 433/4/1 429/1/1
f 442/1/4 432/2/4 436/3/4 444/4/4
f 443/1/5 444/2/5 436/3/5 433/4/5
f 445/2/1 446/3/1 438/4/1 437/1/1
f 445/1/2 437/4/2 439/3/2 447/2/2
f 447/1/4 439/2/4 440/3/4 448/4/4
f 445/1/6 447/2/6 448/3/6 446/4/6
f 446/2/1 449/3/1 441/4/1 438/1/1
f 448/1/4 440/2/4 442/3/4 450/4/4
f 446/1/6 448/2/6 450/3/6 449/4/6
f 449/2/1 451/3/1 443/4/1 441/1/1
f 450/1/4 442/2/4 444/3/4 452/4/4
f 451/1/5 452/2/5 444/3/5 443/4/5
f 449/1/6 450/2/6 452/3/6 451/4/6

g Acacia_Log
usemtl Acacia_Log
f 26/10/1 27/11/1 28/12/1 25/9/1
f 26/9/2 25/12/2 30/11/2 29/10/2
f 25/10/3 28/11/3 31/12/3 30/9/3
f 29/9/4 30/10/4 31/11/4 32/12/4
f 27/11/1 33/12/1 34/9/1 28/10/1
f 28/10/3 34/11/3 35/12/3 31/9/3
f 32/9/4 31/12/4 35/11/4 36/10/4
f 33/9/5 36/10/5 35/11/5 34/12/5
f 49/10/1 50/11/1 27/12/1 26/9/1
f 49/9/2 26/12/2 29/11/2 51/10/2
f 51/9/4 29/10/4 32/11/4 52/12/4
f 49/9/6 51/10/6 52/11/6 50/12/6
f 53/11/1 55/12/1 56/9/1 33/10/1
f 33/10/3 56/11/3 57/12/3 36/9/3
f 54/9/4 36/12/4 57/11/4 58/10/4
f 55/11/1 59/12/1 60/9/1 56/10/1
f 56/10/3 60/11/3 61/12/3 57/9/3
f 58/9/4 57/12/4 61/11/4 62/10/4
f 59/9/5 62/10/5 61/11/5 60/12/5
f 73/10/1 74/11/1 53/12/1 50/9/1
f 73/9/2 50/12/2 52/11/2 75/10/2
f 75/9/4 52/10/4 54/11/4 76/12/4
f 73/9/6 75/10/6 76/11/6 74/12/6
f 79/10/1 81/11/1 64/12/1 59/9/1
f 59/10/3 64/11/3 66/12/3 62/9/3
f 80/9/4 62/10/4 66/11/4 82/12/4
f 88/10/1 89/11/1 90/12/1 87/9/1
f 88/9/2 87/12/2 92/11/2 91/10/2
f 87/10/3 90/11/3 93/12/3 92/9/3
f 91/9/4 92/10/4 93/11/4 94/12/4
f 89/10/1 95/11/1 96/12/1 90/9/1
f 90/10/3 96/11/3 97/12/3 93/9/3
f 94/9/4 93/10/4 97/11/4 98/12/4
f 95/11/1 99/12/1 100/9/1 96/10/1
f 96/10/3 100/11/3 101/12/3 97/9/3
f 98/9/4 97/12/4 101/11/4 102/10/4
f 99/9/5 102/10/5 101/11/5 100/12/5
f 103/11/1 104/12/1 77/9/1 74/10/1
f 103/9/2 74/12/2 76/11/2 105/10/2
f 105/9/4 76/12/4 78/11/4 106/10/4
f 104/11/1 107/12/1 79/9/1 77/10/1
f 106/9/4 78/12/4 80/11/4 108/10/4
f 109/10/1 111/11/1 83/12/1 81/9/1
f 110/9/4 82/10/4 84/11/4 112/12/4
f 111/9/5 112/10/5 84/11/5 83/12/5
f 113/11/1 114/12/1 89/9/1 88/10/1
f 113/9/2 88/12/2 91/11/2 115/10/2
f 115/9/4 91/12/4 94/11/4 116/10/4
f 119/10/1 121/11/1 122/12/1 99/9/1
f 99/10/3 122/11/3 123/12/3 102/9/3
f 120/9/4 102/10/4 123/11/4 124/12/4
f 121/9/5 124/10/5 123/11/5 122/12/5
f 126/10/1 127/11/1 103/12/1 125/9/1
f 126/9/2 125/12/2 129/11/2 128/10/2
f 125/10/3 103/11/3 105/12/3 129/9/3
f 128/9/4 129/10/4 105/11/4 130/12/4
f 133/10/1 135/11/1 109/12/1 107/9/1
f 134/9/4 108/10/4 110/11/4 136/12/4
f 137/10/1 139/11/1 140/12/1 111/9/1
f 111/10/3 140/11/3 141/12/3 112/9/3
f 138/9/4 112/10/4 141/11/4 142/12/4
f 139/9/5 142/10/5 141/11/5 140/12/5
f 143/10/1 144/11/1 114/12/1 113/9/1
f 143/9/2 113/12/2 115/11/2 145/10/2
f 145/9/4 115/10/4 116/11/4 146/12/4
f 143/9/6 145/10/6 146/11/6 144/12/6
f 151/10/1 153/11/1 154/12/1 121/9/1
f 121/10/3 154/11/3 155/12/3 124/9/3
f 152/9/4 124/10/4 155/11/4 156/12/4
f 153/9/5 156/10/5 155/11/5 154/12/5
f 158/10/1 159/11/1 126/12/1 157/9/1
f 158/12/2 157/11/2 161/10/2 160/9/2
f 157/12/3 126/11/3 128/10/3 161/9/3
f 160/9/4 161/10/4 128/11/4 162/12/4
f 167/10/1 169/11/1 135/12/1 133/9/1
f 168/9/4 134/10/4 136/11/4 170/12/4
f 167/9/6 168/10/6 170/11/6 169/12/6
f 171/10/1 173/11/1 139/12/1 137/9/1
f 172/9/4 138/10/4 142/11/4 174/12/4
f 173/9/5 174/10/5 142/11/5 139/12/5
f 175/10/1 176/11/1 147/12/1 144/9/1
f 175/9/2 144/12/2 146/11/2 177/10/2
f 177/9/4 146/10/4 148/11/4 178/12/4
f 175/9/6 177/10/6 178/11/6 176/12/6
f 183/10/1 185/11/1 158/12/1 153/9/1
f 153/12/3 158/11/3 160/10/3 156/9/3
f 184/9/4 156/10/4 160/11/4 186/12/4
f 191/10/1 193/11/1 167/12/1 165/9/1
f 192/9/4 166/10/4 168/11/4 194/12/4
f 193/9/5 194/10/5 168/11/5 167/12/5
f 191/9/6 192/10/6 194/11/6 193/12/6
f 195/11/1 196/12/1 171/9/1 169/10/1
f 195/9/2 169/12/2 170/11/2 197/10/2
f 197/9/4 170/12/4 172/11/4 198/10/4
f 195/9/6 197/10/6 198/11/6 196/12/6
f 199/10/1 201/11/1 202/12/1 173/9/1
f 173/10/3 202/11/3 203/12/3 174/9/3
f 200/9/4 174/10/4 203/11/4 204/12/4
f 201/9/5 204/10/5 203/11/5 202/12/5
f 205/10/1 206/11/1 179/12/1 176/9/1
f 205/9/2 176/12/2 178/11/2 207/10/2
f 207/9/4 178/10/4 180/11/4 208/12/4
f 205/9/6 207/10/6 208/11/6 206/12/6
f 217/10/1 219/11/1 191/12/1 189/9/1
f 218/9/4 190/10/4 192/11/4 220/12/4
f 219/9/5 220/10/5 192/11/5 191/12/5
f 217/9/6 218/10/6 220/11/6 219/12/6
f 221/11/1 222/12/1 199/9/1 196/10/1
f 221/9/2 196/12/2 198/11/2 223/10/2
f 223/9/4 198/12/4 200/11/4 224/10/4
f 221/9/6 223/10/6 224/11/6 222/12/6
f 222/11/1 225/12/1 201/9/1 199/10/1
f 224/9/4 200/12/4 204/11/4 226/10/4
f 225/9/5 226/10/5 204/11/5 201/12/5
f 222/9/6 224/10/6 226/11/6 225/12/6
f 227/10/1 228/11/1 209/12/1 206/9/1
f 227/9/2 206/12/2 208/11/2 229/10/2
f 229/9/4 208/10/4 210/11/4 230/12/4
f 235/10/1 237/11/1 217/12/1 215/9/1
f 236/9/4 216/10/4 218/11/4 238/12/4
f 237/9/5 238/10/5 218/11/5 217/12/5
f 240/10/1 241/11/1 227/12/1 239/9/1
f 240/9/2 239/12/2 243/11/2 242/10/2
f 239/10/3 227/11/3 229/12/3 243/9/3
f 242/9/4 243/10/4 229/11/4 244/12/4
f 253/10/1 255/11/1 256/12/1 237/9/1
f 237/10/3 256/11/3 257/12/3 238/9/3
f 254/9/4 238/10/4 257/11/4 258/12/4
f 255/9/5 258/10/5 257/11/5 256/12/5
f 260/11/1 261/12/1 262/9/1 259/10/1
f 260/9/2 259/12/2 264/11/2 263/10/2
f 259/10/3 262/11/3 265/12/3 264/9/3
f 263/9/4 264/12/4 265/11/4 266/10/4
f 261/10/1 267/11/1 268/12/1 262/9/1
f 262/10/3 268/11/3 269/12/3 265/9/3
f 266/9/4 265/10/4 269/11/4 270/12/4
f 267/9/5 270/10/5 269/11/5 268/12/5
f 272/10/1 273/11/1 240/12/1 271/9/1
f 272/12/2 271/11/2 275/10/2 274/9/2
f 271/12/3 240/11/3 242/10/3 275/9/3
f 274/9/4 275/10/4 242/11/4 276/12/4
f 281/11/1 283/12/1 249/9/1 247/10/1
f 282/9/4 248/12/4 250/11/4 284/10/4
f 281/9/6 282/10/6 284/11/6 283/12/6
f 289/10/1 291/11/1 292/12/1 255/9/1
f 255/10/3 292/11/3 293/12/3 258/9/3
f 290/9/4 258/10/4 293/11/4 294/12/4
f 291/9/5 294/10/5 293/11/5 292/12/5
f 296/11/1 297/12/1 260/9/1 295/10/1
f 296/9/2 295/12/2 299/11/2 298/10/2
f 295/10/3 260/11/3 263/12/3 299/9/3
f 298/9/4 299/12/4 263/11/4 300/10/4
f 301/10/1 303/11/1 267/12/1 261/9/1
f 302/9/4 266/10/4 270/11/4 304/12/4
f 303/9/5 304/10/5 270/11/5 267/12/5
f 301/9/6 302/10/6 304/11/6 303/12/6
f 306/10/1 307/11/1 272/12/1 305/9/1
f 306/12/2 305/11/2 309/10/2 308/9/2
f 305/12/3 272/11/3 274/10/3 309/9/3
f 308/9/4 309/10/4 274/11/4 310/12/4
f 315/10/1 317/11/1 281/12/1 279/9/1
f 316/9/4 280/10/4 282/11/4 318/12/4
f 317/9/5 318/10/5 282/11/5 281/12/5
f 315/9/6 316/10/6 318/11/6 317/12/6
f 319/11/1 320/12/1 285/9/1 283/10/1
f 319/9/2 283/12/2 284/11/2 321/10/2
f 321/9/4 284/12/4 286/11/4 322/10/4
f 319/9/6 321/10/6 322/11/6 320/12/6
f 327/10/1 329/11/1 296/12/1 291/9/1
f 291/10/3 296/11/3 298/12/3 294/9/3
f 328/9/4 294/10/4 298/11/4 330/12/4
f 331/10/1 333/11/1 301/12/1 297/9/1
f 332/9/4 300/10/4 302/11/4 334/12/4
f 333/9/5 334/10/5 302/11/5 301/12/5
f 335/10/1 336/11/1 307/12/1 306/9/1
f 335/12/2 306/11/2 308/10/2 337/9/2
f 337/9/4 308/10/4 310/11/4 338/12/4
f 341/10/1 343/11/1 315/12/1 313/9/1
f 342/9/4 314/10/4 316/11/4 344/12/4
f 343/9/5 344/10/5 316/11/5 315/12/5
f 341/9/6 342/10/6 344/11/6 343/12/6
f 345/11/1 346/12/1 323/9/1 320/10/1
f 345/9/2 320/12/2 322/11/2 347/10/2
f 347/9/4 322/12/4 324/11/4 348/10/4
f 345/9/6 347/10/6 348/11/6 346/12/6
f 351/10/1 353/11/1 329/12/1 327/9/1
f 352/9/4 328/10/4 330/11/4 354/12/4
f 355/10/1 357/11/1 333/12/1 331/9/1
f 356/9/4 332/10/4 334/11/4 358/12/4
f 357/9/5 358/10/5 334/11/5 333/12/5
f 355/9/6 356/10/6 358/11/6 357/12/6
f 359/10/1 360/11/1 336/12/1 335/9/1
f 359/12/2 335/11/2 337/10/2 361/9/2
f 361/9/4 337/10/4 338/11/4 362/12/4
f 359/10/6 361/11/6 362/12/6 360/9/6
f 360/10/1 363/11/1 339/12/1 336/9/1
f 362/9/4 338/10/4 340/11/4 364/12/4
f 360/9/6 362/10/6 364/11/6 363/12/6
f 363/10/1 365/11/1 341/12/1 339/9/1
f 364/9/4 340/10/4 342/11/4 366/12/4
f 365/9/5 366/10/5 342/11/5 341/12/5
f 363/9/6 364/10/6 366/11/6 365/12/6
f 367/11/1 368/12/1 349/9/1 346/10/1
f 367/9/2 346/12/2 348/11/2 369/10/2
f 369/9/4 348/12/4 350/11/4 370/10/4
f 368/11/1 371/12/1 351/9/1 349/10/1
f 370/9/4 350/12/4 352/11/4 372/10/4
f 373/10/1 375/11/1 355/12/1 353/9/1
f 374/9/4 354/10/4 356/11/4 376/12/4
f 375/9/5 376/10/5 356/11/5 355/12/5
f 378/10/1 379/11/1 367/12/1 377/9/1
f 378/9/2 377/12/2 381/11/2 380/10/2
f 377/10/3 367/11/3 369/12/3 381/9/3
f 380/9/4 381/10/4 369/11/4 382/12/4
f 385/10/1 387/11/1 373/12/1 371/9/1
f 386/9/4 372/10/4 374/11/4 388/12/4
f 385/9/6 386/10/6 388/11/6 387/12/6
f 396/10/1 397/11/1 378/12/1 395/9/1
f 396/9/2 395/12/2 399/11/2 398/10/2
f 395/10/3 378/11/3 380/12/3 399/9/3
f 398/9/4 399/10/4 380/11/4 400/12/4
f 401/11/1 403/12/1 383/9/1 379/10/1
f 402/9/4 382/12/4 384/11/4 404/10/4
f 401/9/6 402/10/6 404/11/6 403/12/6
f 403/11/1 405/12/1 385/9/1 383/10/1
f 404/9/4 384/12/4 386/11/4 406/10/4
f 405/9/5 406/10/5 386/11/5 385/12/5
f 403/9/6 404/10/6 406/11/6 405/12/6
f 417/11/1 418/12/1 397/9/1 396/10/1
f 417/9/2 396/12/2 398/11/2 419/10/2
f 419/9/4 398/12/4 400/11/4 420/10/4
f 417/9/6 419/10/6 420/11/6 418/12/6
f 418/11/1 421/12/1 401/9/1 397/10/1
f 420/9/4 400/12/4 402/11/4 422/10/4
f 421/9/5 422/10/5 402/11/5 401/12/5
f 418/9/6 420/10/6 422/11/6 421/12/6

g Sea_Lantern
usemtl Sea_Lantern
f 18/6/1 21/7/1 9/8/1 3/5/1
f 20/5/4 8/6/4 12/7/4 22/8/4
f 117/6/1 119/7/1 99/8/1 95/5/1
f 118/5/4 98/6/4 102/7/4 120/8/4
f 127/6/1 131/7/1 104/8/1 103/5/1
f 130/5/4 105/6/4 106/7/4 132/8/4
f 144/6/1 147/7/1 117/8/1 114/5/1
f 146/5/4 116/6/4 118/7/4 148/8/4
f 149/6/1 151/7/1 121/8/1 119/5/1
f 150/5/4 120/6/4 124/7/4 152/8/4
f 159/6/1 163/7/1 127/8/1 126/5/1
f 162/5/4 128/6/4 130/7/4 164/8/4
f 165/6/1 167/7/1 133/8/1 131/5/1
f 166/5/4 132/6/4 134/7/4 168/8/4
f 176/6/1 179/7/1 149/8/1 147/5/1
f 178/5/4 148/6/4 150/7/4 180/8/4
f 181/6/1 183/7/1 153/8/1 151/5/1
f 182/5/4 152/6/4 156/7/4 184/8/4
f 185/6/1 187/7/1 159/8/1 158/5/1
f 186/5/4 160/6/4 162/7/4 188/8/4
f 189/6/1 191/7/1 165/8/1 163/5/1
f 190/5/4 164/6/4 166/7/4 192/8/4
f 206/6/1 209/7/1 181/8/1 179/5/1
f 208/5/4 180/6/4 182/7/4 210/8/4
f 211/6/1 213/7/1 185/8/1 183/5/1
f 212/5/4 184/6/4 186/7/4 214/8/4
f 215/6/1 217/7/1 189/8/1 187/5/1
f 216/5/4 188/6/4 190/7/4 218/8/4
f 228/6/1 231/7/1 211/8/1 209/5/1
f 230/5/4 210/6/4 212/7/4 232/8/4
f 233/6/1 235/7/1 215/8/1 213/5/1
f 234/5/4 214/6/4 216/7/4 236/8/4
f 241/6/1 245/7/1 228/8/1 227/5/1
f 244/5/4 229/6/4 230/7/4 246/8/4
f 247/6/1 249/7/1 233/8/1 231/5/1
f 248/5/4 232/6/4 234/7/4 250/8/4
f 251/6/1 253/7/1 237/8/1 235/5/1
f 252/5/4 236/6/4 238/7/4 254/8/4
f 273/6/1 277/7/1 241/8/1 240/5/1
f 276/5/4 242/6/4 244/7/4 278/8/4
f 279/6/1 281/7/1 247/8/1 245/5/1
f 280/5/4 246/6/4 248/7/4 282/8/4
f 283/6/1 285/7/1 251/8/1 249/5/1
f 284/5/4 250/6/4 252/7/4 286/8/4
f 287/6/1 289/7/1 255/8/1 253/5/1
f 288/5/4 254/6/4 258/7/4 290/8/4
f 307/6/1 311/7/1 273/8/1 272/5/1
f 310/5/4 274/6/4 276/7/4 312/8/4
f 313/6/1 315/7/1 279/8/1 277/5/1
f 314/5/4 278/6/4 280/7/4 316/8/4
f 320/6/1 323/7/1 287/8/1 285/5/1
f 322/5/4 286/6/4 288/7/4 324/8/4
f 325/6/1 327/7/1 291/8/1 289/5/1
f 326/5/4 290/6/4 294/7/4 328/8/4
f 339/6/1 341/7/1 313/8/1 311/5/1
f 340/5/4 312/6/4 314/7/4 342/8/4
f 346/6/1 349/7/1 325/8/1 323/5/1
f 348/5/4 324/6/4 326/7/4 350/8/4
f 438/6/1 441/7/1 429/8/1 427/5/1
f 440/5/4 428/6/4 432/7/4 442/8/4
